# xmcd
#
# Track frame offsets: 
#        150
#        39676
#        79547
#        126595
#        142323
#
# Disc length: 2320 seconds
#
# Revision: 0
# Processed by: cddbd v1.5.2PL0 Copyright (c) Steve Scherf et al.
# Submitted via: ExactAudioCopy v1.0b3
#
DISCID=48090e05
DTITLE=Witch_Mountain - Mobile_of_Angels
DYEAR=2014
DGENRE=Metal
TTITLE0=Psycho_Animundi
TTITLE1=Cant_Settle
TTITLE2=Your_Corrupt_Ways
TTITLE3=Mobile_of_Angels
TTITLE4=The_Shape_Truth_Takes
EXTD=
EXTT0=
EXTT1=
EXTT2=
EXTT3=
EXTT4=
PLAYORDER=
